<svg xmlns="http://www.w3.org/2000/svg" width="250" height="50" viewBox="0 0 250 50" fill="none">
    <path
        d="M57.4825 31.8099C56.2434 31.8232 55.0156 31.5735 53.88 31.0774C52.7989 30.6073 51.8218 29.9275 51.005 29.0774C50.1796 28.2067 49.5347 27.1811 49.1075 26.0599C48.6473 24.8542 48.4166 23.573 48.4275 22.2824C48.4117 21.0004 48.6425 19.7273 49.1075 18.5324C49.5295 17.4467 50.1742 16.4614 51 15.6399C51.8248 14.8364 52.8036 14.208 53.8775 13.7924C55.0321 13.3448 56.2618 13.1224 57.5 13.1374H67.62V16.3874H57.5C56.7029 16.3795 55.9123 16.5317 55.175 16.8349C54.4843 17.1217 53.8598 17.5471 53.34 18.0849C52.8144 18.6311 52.4038 19.2772 52.1325 19.9849C51.8327 20.763 51.6842 21.5912 51.695 22.4249C51.6874 23.2584 51.8358 24.086 52.1325 24.8649C52.4016 25.5857 52.8122 26.2453 53.34 26.8049C53.8601 27.3479 54.4842 27.7806 55.175 28.0774C55.91 28.3895 56.7016 28.5461 57.5 28.5374H65.5V23.6924H57.075V20.9424H68.75V31.8074L57.4825 31.8099Z"
        fill="#2A0062" stroke="#2A0062" stroke-width="0.25" stroke-miterlimit="10" />
    <path
        d="M78.0175 31.8598C77.1492 31.8728 76.2879 31.7024 75.49 31.3598C74.7259 31.0274 74.0364 30.545 73.4623 29.9412C72.8881 29.3374 72.441 28.6245 72.1475 27.8448C71.8245 27.0015 71.6625 26.1052 71.67 25.2023C71.659 24.3039 71.8211 23.4119 72.1475 22.5748C72.4443 21.8149 72.8974 21.1259 73.4775 20.5523C74.0572 19.9865 74.7451 19.5435 75.5 19.2498C76.3055 18.9368 77.1633 18.7807 78.0275 18.7898H81.2C82.0871 18.7771 82.9686 18.9332 83.7975 19.2498C84.5569 19.5394 85.2465 19.9862 85.8213 20.561C86.396 21.1357 86.8428 21.8254 87.1325 22.5848C87.4523 23.4138 87.611 24.2963 87.6 25.1848C87.6082 26.0876 87.4471 26.9839 87.125 27.8273C86.8257 28.6131 86.3727 29.3313 85.7925 29.9398C85.2187 30.5376 84.531 31.0145 83.77 31.3423C82.9577 31.6869 82.0822 31.8572 81.2 31.8423L78.0175 31.8598ZM81.2 29.5773C81.7676 29.5845 82.3305 29.4729 82.8525 29.2498C83.3441 29.046 83.7883 28.7431 84.1575 28.3598C84.5309 27.9704 84.8218 27.5095 85.0125 27.0048C85.2186 26.4593 85.322 25.8804 85.3175 25.2973C85.3227 24.7165 85.2192 24.14 85.0125 23.5973C84.8216 23.0949 84.5307 22.6364 84.1575 22.2498C83.786 21.8742 83.342 21.5782 82.8525 21.3798C82.3283 21.1649 81.7664 21.0569 81.2 21.0623H78.0175C77.4591 21.0573 76.9055 21.1653 76.39 21.3798C75.9068 21.5791 75.4695 21.8752 75.105 22.2498C74.7335 22.634 74.4427 23.0888 74.25 23.5873C74.0405 24.1327 73.937 24.7131 73.945 25.2973C73.9398 25.8788 74.0433 26.4562 74.25 26.9998C74.4377 27.5036 74.7251 27.9645 75.095 28.3548C75.4572 28.7371 75.8947 29.0401 76.38 29.2448C76.8934 29.4672 77.448 29.5788 78.0075 29.5723L81.2 29.5773Z"
        fill="#2A0062" stroke="#2A0062" stroke-width="0.5" stroke-miterlimit="10" />
    <path
        d="M96.2499 26.6228V23.4628H103.75C104.898 23.4628 105.793 23.1412 106.435 22.4978C107.077 21.8545 107.397 20.9945 107.397 19.9178C107.397 18.8378 107.077 17.982 106.435 17.3503C105.795 16.7153 104.9 16.4003 103.757 16.4003H93.8899V31.8103H90.6274V13.1378H103.75C104.734 13.1216 105.713 13.2825 106.64 13.6128C107.441 13.9014 108.172 14.3564 108.785 14.9478C109.378 15.5393 109.833 16.2536 110.12 17.0403C110.439 17.9301 110.596 18.8701 110.582 19.8153C110.593 20.7522 110.436 21.6834 110.12 22.5653C109.834 23.3743 109.374 24.1108 108.773 24.7232C108.171 25.3356 107.443 25.8091 106.64 26.1103C105.717 26.4578 104.736 26.6275 103.75 26.6103L96.2499 26.6228Z"
        fill="#2A0062" stroke="#2A0062" stroke-width="0.25" stroke-miterlimit="10" />
    <path
        d="M136.2 31.8341V28.7716H142.308C142.719 28.7927 143.13 28.7196 143.509 28.5581C143.888 28.3965 144.225 28.1506 144.495 27.8391C145.02 27.2191 145.282 26.3857 145.28 25.3391C145.278 24.2924 145.017 23.4591 144.495 22.8391C144.224 22.5312 143.887 22.2886 143.509 22.1293C143.131 21.97 142.722 21.8981 142.313 21.9191H134.273V36.8541H131.62V18.7666H142.308C143.115 18.7519 143.917 18.9087 144.66 19.2266C145.334 19.5198 145.933 19.9627 146.41 20.5216C146.908 21.1161 147.279 21.806 147.5 22.5491C148.007 24.3015 148.007 26.1616 147.5 27.9141C147.276 28.6697 146.906 29.3745 146.413 29.9891C145.942 30.5709 145.343 31.0363 144.663 31.3491C143.924 31.6821 143.12 31.8477 142.31 31.8341H136.2Z"
        fill="#2A0062" stroke="#2A0062" stroke-width="0.25" stroke-miterlimit="10" />
    <path
        d="M179.273 31.8603L175.963 28.2278H171.075V26.2278H176.523C177.356 26.2278 177.979 26.0061 178.393 25.5628C178.813 25.1178 179.023 24.4653 179.023 23.6003C179.023 22.7353 178.803 22.1003 178.368 21.6953C177.933 21.2903 177.318 21.0828 176.53 21.0828H169.42V31.8728H167.138V18.7878H176.523C177.204 18.7771 177.882 18.8897 178.523 19.1203C179.087 19.3246 179.599 19.6507 180.023 20.0753C180.438 20.5024 180.757 21.014 180.958 21.5753C181.183 22.2099 181.293 22.8796 181.283 23.5528C181.318 24.5179 181.074 25.4726 180.58 26.3028C180.11 27.042 179.406 27.6026 178.58 27.8953L182.5 31.8603H179.273Z"
        fill="#2A0062" stroke="#2A0062" stroke-width="0.5" stroke-miterlimit="10" />
    <path
        d="M216.5 31.8601V29.5776H226.3C226.813 29.6092 227.319 29.4418 227.712 29.1101C227.879 28.949 228.01 28.7543 228.096 28.5388C228.183 28.3233 228.222 28.092 228.212 27.8601C228.23 27.6233 228.194 27.3855 228.108 27.1644C228.021 26.9432 227.886 26.7444 227.712 26.5826C227.304 26.2835 226.804 26.1374 226.3 26.1701H220.3C219.733 26.1781 219.17 26.0841 218.637 25.8926C218.172 25.7227 217.746 25.4589 217.387 25.1176C217.044 24.7848 216.774 24.3837 216.595 23.9401C216.231 22.9954 216.222 21.9509 216.57 21.0001C216.735 20.5598 216.998 20.1631 217.34 19.8401C217.707 19.5017 218.139 19.2414 218.61 19.0751C219.164 18.8814 219.748 18.7874 220.335 18.7976H229.722V21.0801H220.335C220.112 21.0645 219.888 21.0935 219.676 21.1657C219.464 21.2378 219.269 21.3515 219.102 21.5001C218.956 21.6578 218.844 21.8435 218.772 22.0459C218.699 22.2482 218.669 22.4632 218.682 22.6776C218.669 22.8924 218.701 23.1077 218.776 23.3093C218.852 23.5109 218.969 23.6943 219.12 23.8476C219.45 24.1326 219.879 24.277 220.315 24.2501H226.295C227.628 24.2501 228.639 24.5618 229.327 25.1851C230.01 25.8101 230.35 26.7551 230.35 28.0276C230.355 28.5474 230.271 29.0642 230.1 29.5551C229.941 30.009 229.685 30.4228 229.35 30.7676C228.997 31.1234 228.57 31.3974 228.1 31.5701C227.527 31.7721 226.922 31.8695 226.315 31.8576L216.5 31.8601Z"
        fill="#2A0062" stroke="#2A0062" stroke-width="0.5" stroke-miterlimit="10" />
    <path
        d="M232.327 31.8601V29.5776H242.127C242.64 29.6109 243.146 29.4433 243.537 29.1101C243.705 28.9492 243.836 28.7545 243.922 28.539C244.008 28.3234 244.048 28.092 244.037 27.8601C244.056 27.6232 244.02 27.3853 243.934 27.1641C243.847 26.9428 243.712 26.744 243.537 26.5826C243.131 26.283 242.631 26.1369 242.127 26.1701H236.127C235.561 26.1775 234.998 26.0835 234.465 25.8926C234 25.7224 233.574 25.4586 233.215 25.1176C232.871 24.7848 232.601 24.3837 232.422 23.9401C232.054 22.9966 232.043 21.9509 232.392 21.0001C232.558 20.5597 232.823 20.163 233.165 19.8401C233.531 19.5022 233.961 19.242 234.43 19.0751C234.986 18.8815 235.571 18.7876 236.16 18.7976H245.542V21.0801H236.16C235.937 21.064 235.713 21.0929 235.501 21.165C235.289 21.2372 235.094 21.3511 234.927 21.5001C234.781 21.6563 234.668 21.8405 234.594 22.0415C234.521 22.2425 234.489 22.4563 234.5 22.6701C234.486 22.8852 234.519 23.1007 234.594 23.3023C234.67 23.504 234.788 23.6873 234.94 23.8401C235.27 24.1286 235.7 24.2759 236.137 24.2501H242.115C243.448 24.2501 244.459 24.5618 245.147 25.1851C245.83 25.8101 246.172 26.7551 246.172 28.0276C246.178 28.5474 246.093 29.0642 245.922 29.5551C245.764 30.0091 245.508 30.4229 245.172 30.7676C244.818 31.1218 244.392 31.3955 243.922 31.5701C243.349 31.7719 242.743 31.8693 242.135 31.8576L232.327 31.8601Z"
        fill="#2A0062" stroke="#2A0062" stroke-width="0.5" stroke-miterlimit="10" />
    <path
        d="M126.06 18.7873H118.75C117.889 18.7803 117.035 18.9373 116.233 19.2498C115.482 19.5423 114.797 19.9817 114.218 20.5423C113.639 21.1173 113.186 21.806 112.888 22.5648C112.562 23.4021 112.401 24.2941 112.413 25.1923C112.404 26.0951 112.566 26.9914 112.888 27.8348C113.181 28.615 113.629 29.3283 114.203 29.9321C114.778 30.536 115.468 31.0181 116.233 31.3498C117.031 31.6924 117.892 31.8628 118.76 31.8498H123.64V29.5673H118.75C118.191 29.5739 117.636 29.4623 117.123 29.2398C116.637 29.0352 116.2 28.7321 115.838 28.3498C115.472 27.9596 115.187 27.5007 115 26.9998C114.795 26.4542 114.692 25.8753 114.698 25.2923C114.691 24.7101 114.793 24.1317 115 23.5873C115.192 23.0899 115.48 22.6354 115.848 22.2498C116.212 21.8752 116.65 21.5792 117.133 21.3798C117.646 21.1693 118.196 21.0639 118.75 21.0698L126.05 21.0023V31.8598H128.333V18.7873H126.06Z"
        fill="#2A0062" stroke="#2A0062" stroke-width="0.5" stroke-miterlimit="10" />
    <path
        d="M163.87 29.5768H156.87C156.313 29.5827 155.761 29.4711 155.25 29.2493C154.764 29.0447 154.325 28.7417 153.962 28.3593C153.593 27.9683 153.306 27.5077 153.117 27.0043C152.91 26.4592 152.806 25.8801 152.812 25.2968C152.804 24.7134 152.908 24.1339 153.117 23.5893C153.309 23.0911 153.597 22.6357 153.965 22.2493C154.331 21.8785 154.768 21.5851 155.25 21.3868C155.765 21.1732 156.317 21.0661 156.875 21.0718L158.347 21.0568H163.847L163.875 18.7893H156.875C156.012 18.7817 155.156 18.9378 154.352 19.2493C153.601 19.5418 152.916 19.9812 152.337 20.5418C151.759 21.1177 151.306 21.8072 151.007 22.5668C150.681 23.4031 150.519 24.2943 150.53 25.1918C150.52 26.0935 150.679 26.9889 151 27.8318C151.293 28.612 151.741 29.3253 152.315 29.9291C152.89 30.5329 153.58 31.0151 154.345 31.3468C155.142 31.6894 156.002 31.8598 156.87 31.8468H163.87V29.5768Z"
        fill="#2A0062" stroke="#2A0062" stroke-width="0.5" stroke-miterlimit="10" />
    <path d="M163.87 24.1816H154.81V26.4641H163.87V24.1816Z" fill="#2A0062" stroke="#2A0062" stroke-width="0.5"
        stroke-miterlimit="10" />
    <path
        d="M212.782 29.5783H205.782C205.223 29.5849 204.668 29.4733 204.155 29.2508C203.67 29.0462 203.232 28.7431 202.87 28.3608C202.5 27.97 202.212 27.5093 202.022 27.0058C201.817 26.4594 201.714 25.8796 201.72 25.2958C201.712 24.7127 201.815 24.1334 202.022 23.5883C202.215 23.0899 202.506 22.6351 202.877 22.2508C203.242 21.8755 203.679 21.5785 204.162 21.3783C204.678 21.1648 205.232 21.0576 205.79 21.0633H207.262H212.762L212.792 18.7933H205.792C204.928 18.7844 204.069 18.9396 203.262 19.2508C202.513 19.5431 201.829 19.9816 201.25 20.5408C200.672 21.1158 200.219 21.8045 199.92 22.5633C199.595 23.3998 199.434 24.291 199.445 25.1883C199.437 26.0919 199.598 26.9891 199.92 27.8333C200.213 28.6135 200.661 29.3268 201.235 29.9306C201.81 30.5345 202.5 31.0166 203.265 31.3483C204.063 31.6909 204.924 31.8613 205.792 31.8483H212.792L212.782 29.5783Z"
        fill="#2A0062" stroke="#2A0062" stroke-width="0.5" stroke-miterlimit="10" />
    <path d="M212.783 24.1797H203.72V26.4622H212.783V24.1797Z" fill="#2A0062" stroke="#2A0062" stroke-width="0.5"
        stroke-miterlimit="10" />
    <path d="M186.217 31.9492V18.6992H188.532V29.6292H197.442V31.9442L186.217 31.9492Z" fill="#2A0062" stroke="#2A0062"
        stroke-width="0.5" stroke-miterlimit="10" />
    <path
        d="M39.8802 14.0591L33.4702 10.3091C33.4373 10.7677 33.2743 11.2074 33.0002 11.5766L38.5402 14.8141L31.9202 18.5641V12.4166C31.6244 12.5384 31.3075 12.6004 30.9877 12.5991C30.8561 12.5997 30.7248 12.5888 30.5952 12.5666V18.0816L23.9752 6.29656L28.7252 9.07906C28.9164 8.66529 29.2162 8.31107 29.5927 8.05406L22.6952 4.01406L22.1952 3.72656L21.7127 4.01406L6.67016 12.9991C7.08139 13.2172 7.42149 13.5486 7.65016 13.9541L13.0002 10.7491V19.0766L12.8852 18.9991L7.81766 16.0591C7.65814 16.4839 7.38378 16.856 7.02516 17.1341L12.2252 20.1566L10.4752 23.3141L6.81266 17.2816C6.42037 17.5311 5.96511 17.6638 5.50016 17.6641L9.75016 24.6641L5.29516 32.7091V17.6541C4.81259 17.6173 4.35205 17.437 3.97266 17.1366V35.6591L4.63766 36.0466L11.0202 39.7641C11.0344 39.3021 11.1801 38.8537 11.4402 38.4716L5.94016 35.2691L13.0002 31.0566V37.4216C13.1648 37.3883 13.3322 37.3716 13.5002 37.3716C13.7813 37.3711 14.0604 37.4193 14.3252 37.5141V32.5766L20.0602 43.4991L15.7227 40.9666C15.517 41.3788 15.2 41.7252 14.8077 41.9666L21.2227 45.6991L22.2002 46.2691L39.8752 35.9991L40.5352 35.6141V14.4441L39.8802 14.0591ZM13.0002 29.5166L12.7852 29.6466L6.40016 33.4541L13.0002 21.4991V29.5166ZM22.1902 5.82406L29.1902 18.2616L24.7502 15.9091C24.6163 16.3408 24.3664 16.7273 24.0277 17.0266L29.5002 19.9291L21.8702 24.2491L14.7052 20.0666L20.5377 16.8341C20.2344 16.5014 20.0293 16.0912 19.9452 15.6491L14.6952 18.5616L22.1902 5.82406ZM14.3277 9.96406L20.3277 6.38906L14.3277 16.5566V9.96406ZM14.3277 21.3816L20.5602 24.9991L14.3277 28.7241V21.3816ZM21.8802 44.1091L15.3252 31.6266L22.2502 35.6691L28.6952 31.7491L21.8802 44.1091ZM30.6002 39.8591L23.4427 44.0166L30.6002 31.0441V39.8591ZM30.6002 20.8316V29.1991L30.4677 29.1216L28.8752 28.2191C28.7212 28.6436 28.4551 29.0186 28.1052 29.3041L29.1727 29.9116L22.2502 34.1266L14.9727 29.8766L21.8752 25.7591L24.0852 27.0091C24.1473 26.5608 24.3325 26.1384 24.6202 25.7891L23.2102 24.9991L30.6002 20.8241V20.7491L30.6302 20.7991L30.6002 20.8316ZM31.9252 20.0816L38.0477 16.6216L33.8677 23.7066L31.9252 20.3991V20.0816ZM31.9252 23.0166L38.0477 33.4341L31.9252 29.9516V23.0166ZM31.9252 39.0891V31.4741L38.5452 35.2241L31.9252 39.0891ZM39.2102 32.7966L34.6377 25.0166L39.2102 17.2666V32.7966Z"
        fill="#2A0062" stroke="#2A0062" stroke-width="0.25" stroke-miterlimit="10" />
    <path d="M30.6301 20.8098L30.6001 20.8273V20.7598L30.6301 20.8098Z" fill="#2A0062" stroke="#2A0062"
        stroke-width="0.25" stroke-miterlimit="10" />
    <path d="M30.6301 20.8098L30.6001 20.8273V20.7598L30.6301 20.8098Z" fill="#2A0062" stroke="#2A0062"
        stroke-width="0.25" stroke-miterlimit="10" />
    <path
        d="M7.32014 15.1791C7.32382 15.3624 7.30023 15.5452 7.25014 15.7216C7.13283 16.0933 6.89972 16.4178 6.58488 16.6476C6.27003 16.8775 5.88995 17.0006 5.50014 16.9991C5.02814 16.9816 4.58129 16.7818 4.25355 16.4417C3.9258 16.1016 3.74268 15.6477 3.74268 15.1753C3.74268 14.703 3.9258 14.2491 4.25355 13.909C4.58129 13.5689 5.02814 13.3691 5.50014 13.3516C5.65547 13.3509 5.81019 13.3711 5.96014 13.4116C6.35085 13.5133 6.69679 13.7418 6.94379 14.0612C7.19079 14.3806 7.3249 14.7728 7.32514 15.1766L7.32014 15.1791Z"
        fill="#2A0062" stroke="#2A0062" stroke-width="0.25" stroke-miterlimit="10" />
    <path
        d="M24.2074 15.1807C24.207 15.3188 24.1911 15.4563 24.1599 15.5907C24.0588 16.0394 23.7906 16.4327 23.4099 16.6907C23.106 16.8942 22.7482 17.0021 22.3824 17.0007C21.9169 17.0015 21.469 16.8224 21.1324 16.5007C20.7941 16.1887 20.5898 15.7577 20.5624 15.2982C20.5586 15.2575 20.5586 15.2165 20.5624 15.1757C20.5534 14.9306 20.5938 14.6861 20.6814 14.4569C20.7689 14.2277 20.9018 14.0185 21.0721 13.8418C21.2423 13.6652 21.4464 13.5246 21.6722 13.4287C21.898 13.3327 22.1408 13.2832 22.3862 13.2832C22.6315 13.2832 22.8744 13.3327 23.1001 13.4287C23.3259 13.5246 23.5301 13.6652 23.7003 13.8418C23.8706 14.0185 24.0034 14.2277 24.091 14.4569C24.1786 14.6861 24.219 14.9306 24.2099 15.1757L24.2074 15.1807Z"
        fill="#2A0062" stroke="#2A0062" stroke-width="0.25" stroke-miterlimit="10" />
    <path
        d="M32.8173 10.1141C32.8183 10.5224 32.6808 10.919 32.4273 11.2391C32.2906 11.4173 32.1208 11.5675 31.9273 11.6816C31.6448 11.8478 31.3225 11.9342 30.9948 11.9316C30.8628 11.9328 30.731 11.9185 30.6023 11.8891C30.1971 11.7996 29.8346 11.5743 29.575 11.2505C29.3154 10.9268 29.1742 10.5241 29.1748 10.1091C29.174 9.75315 29.2778 9.40484 29.4734 9.10746C29.669 8.81009 29.9477 8.57679 30.2748 8.43657C30.5021 8.33841 30.7472 8.2882 30.9948 8.28907C31.4457 8.28847 31.8808 8.45503 32.216 8.75655C32.5512 9.05807 32.7628 9.47315 32.8098 9.92157C32.8162 9.98553 32.8188 10.0498 32.8173 10.1141Z"
        fill="#2A0062" stroke="#2A0062" stroke-width="0.25" stroke-miterlimit="10" />
    <path
        d="M28.3598 27.3777C28.3604 27.5471 28.336 27.7156 28.2873 27.8777C28.1667 28.2998 27.8976 28.6641 27.5297 28.9035C27.1617 29.1428 26.7196 29.2411 26.2848 29.1802C25.8501 29.1194 25.452 28.9034 25.164 28.5722C24.8759 28.2409 24.7173 27.8167 24.7173 27.3777C24.7179 26.8944 24.9101 26.4309 25.2517 26.0889C25.5932 25.7468 26.0564 25.5541 26.5398 25.5527C26.7791 25.5531 27.016 25.6005 27.237 25.6924C27.458 25.7843 27.6588 25.9188 27.8278 26.0883C27.9968 26.2578 28.1307 26.4589 28.222 26.6801C28.3133 26.9013 28.3601 27.1384 28.3598 27.3777Z"
        fill="#2A0062" stroke="#2A0062" stroke-width="0.25" stroke-miterlimit="10" />
    <path
        d="M15.3252 39.8577C15.3258 40.1259 15.266 40.3908 15.1502 40.6327C15.049 40.8489 14.9062 41.0429 14.7299 41.2038C14.5535 41.3647 14.3472 41.4892 14.1227 41.5702C13.9244 41.6441 13.7144 41.6813 13.5027 41.6802C13.0723 41.6799 12.6558 41.5274 12.3269 41.2497C11.9979 40.972 11.7778 40.587 11.7052 40.1627C11.6873 40.062 11.6781 39.96 11.6777 39.8577C11.6793 39.4619 11.8093 39.0772 12.0482 38.7616C12.2872 38.446 12.6221 38.2165 13.0027 38.1077C13.1648 38.0583 13.3334 38.0339 13.5027 38.0352C13.7902 38.0339 14.0735 38.1035 14.3277 38.2377C14.6278 38.3888 14.88 38.6202 15.0561 38.9063C15.2323 39.1924 15.3254 39.5218 15.3252 39.8577Z"
        fill="#2A0062" stroke="#2A0062" stroke-width="0.25" stroke-miterlimit="10" />
</svg>